<svg width="45" height="32" viewBox="0 0 45 32" fill="none" xmlns="http://www.w3.org/2000/svg">
<path fill-rule="evenodd" clip-rule="evenodd" d="M22.5955 6.09528C22.6749 5.80683 23.0813 5.79957 23.1709 6.085L25.2215 12.6142C25.2513 12.709 25.3261 12.7829 25.4212 12.8116L31.2746 14.5754C31.5535 14.6594 31.561 15.0516 31.2856 15.1463L25.0014 17.3071C24.9077 17.3393 24.836 17.4157 24.8097 17.5112L23.136 23.5924C23.0566 23.8808 22.6502 23.8881 22.5606 23.6026L20.5099 17.0734C20.4802 16.9786 20.4054 16.9047 20.3103 16.876L14.4569 15.1122C14.178 15.0282 14.1705 14.636 14.446 14.5413L20.7301 12.3805C20.8237 12.3483 20.8955 12.2719 20.9218 12.1764L22.5955 6.09528Z" fill="#1B97DB"/>
</svg>
