<svg width="97" height="40" viewBox="0 0 97 40" fill="none" xmlns="http://www.w3.org/2000/svg">
<rect width="40" height="40" rx="8" fill="white" fill-opacity="0.1"/>
<rect x="4" y="4" width="32" height="32" rx="8" fill="#9B51E0"/>
<rect width="22" height="24" transform="translate(8 8)" fill="#9B51E0"/>
<path d="M25.4167 30H12.5833C11.5708 30 10.75 29.1046 10.75 28V14C10.75 12.8954 11.5708 12 12.5833 12H14.4167V10H16.25V12H21.75V10H23.5833V12H25.4167C26.4292 12 27.25 12.8954 27.25 14V28C27.25 29.1046 26.4292 30 25.4167 30ZM12.5833 18V28H25.4167V18H12.5833ZM12.5833 14V16H25.4167V14H12.5833ZM19.9167 26H14.4167V20H19.9167V26Z" fill="white"/>
<path d="M55.9259 17.5H51.2852V4.40909H55.9642C57.281 4.40909 58.4145 4.67116 59.3648 5.19531C60.3151 5.7152 61.0459 6.46307 61.5573 7.43892C62.0729 8.41477 62.3307 9.58239 62.3307 10.9418C62.3307 12.3054 62.0729 13.4773 61.5573 14.4574C61.0459 15.4375 60.3108 16.1896 59.352 16.7138C58.3975 17.2379 57.2554 17.5 55.9259 17.5ZM54.053 15.1286H55.8108C56.629 15.1286 57.3172 14.9837 57.8754 14.6939C58.4379 14.3999 58.8598 13.946 59.1411 13.3324C59.4266 12.7145 59.5693 11.9176 59.5693 10.9418C59.5693 9.97443 59.4266 9.18395 59.1411 8.57031C58.8598 7.95668 58.4401 7.50497 57.8818 7.2152C57.3236 6.92543 56.6354 6.78054 55.8172 6.78054H54.053V15.1286ZM67.1295 17.6854C66.5031 17.6854 65.9449 17.5767 65.4548 17.3594C64.9648 17.1378 64.577 16.8118 64.2915 16.3814C64.0102 15.9467 63.8696 15.4055 63.8696 14.7578C63.8696 14.2124 63.9697 13.7543 64.17 13.3835C64.3703 13.0128 64.643 12.7145 64.9882 12.4886C65.3334 12.2628 65.7254 12.0923 66.1643 11.9773C66.6075 11.8622 67.072 11.7812 67.5578 11.7344C68.1288 11.6747 68.589 11.6193 68.9385 11.5682C69.2879 11.5128 69.5415 11.4318 69.6991 11.3253C69.8568 11.2187 69.9356 11.0611 69.9356 10.8523V10.8139C69.9356 10.4091 69.8078 10.0959 69.5521 9.87429C69.3007 9.6527 68.9427 9.5419 68.4782 9.5419C67.9882 9.5419 67.5983 9.65057 67.3085 9.8679C67.0187 10.081 66.827 10.3494 66.7332 10.6733L64.2148 10.4688C64.3426 9.87216 64.594 9.35653 64.969 8.92188C65.344 8.48295 65.8277 8.14631 66.42 7.91193C67.0166 7.6733 67.7069 7.55398 68.491 7.55398C69.0365 7.55398 69.5585 7.6179 70.0571 7.74574C70.5599 7.87358 71.0052 8.07173 71.393 8.3402C71.7851 8.60866 72.094 8.95384 72.3199 9.37571C72.5457 9.79332 72.6586 10.294 72.6586 10.8778V17.5H70.0763V16.1385H69.9996C69.8419 16.4453 69.6309 16.7159 69.3667 16.9503C69.1025 17.1804 68.7851 17.3615 68.4143 17.4936C68.0436 17.6214 67.6153 17.6854 67.1295 17.6854ZM67.9094 15.8061C68.3099 15.8061 68.6636 15.7273 68.9704 15.5696C69.2773 15.4077 69.518 15.1903 69.6927 14.9176C69.8675 14.6449 69.9548 14.3359 69.9548 13.9908V12.9489C69.8696 13.0043 69.7524 13.0554 69.6032 13.1023C69.4584 13.1449 69.2943 13.1854 69.1111 13.2237C68.9278 13.2578 68.7446 13.2898 68.5613 13.3196C68.3781 13.3452 68.2119 13.3686 68.0628 13.3899C67.7432 13.4368 67.464 13.5114 67.2254 13.6136C66.9868 13.7159 66.8014 13.8544 66.6693 14.0291C66.5372 14.1996 66.4711 14.4126 66.4711 14.6683C66.4711 15.0391 66.6054 15.3224 66.8738 15.5185C67.1466 15.7102 67.4917 15.8061 67.9094 15.8061ZM76.1008 21.1818C75.7556 21.1818 75.4317 21.1541 75.1292 21.0987C74.8309 21.0476 74.5837 20.9815 74.3877 20.9006L75.0013 18.8679C75.3209 18.9659 75.6086 19.0192 75.8643 19.0277C76.1242 19.0362 76.3479 18.9766 76.5354 18.8487C76.7272 18.7209 76.8827 18.5036 77.002 18.1967L77.1618 17.7812L73.6398 7.68182H76.5035L78.5361 14.892H78.6384L80.6903 7.68182H83.5731L79.757 18.5611C79.5738 19.0895 79.3245 19.5497 79.0091 19.9418C78.6981 20.3381 78.3039 20.6428 77.8266 20.8558C77.3493 21.0732 76.7741 21.1818 76.1008 21.1818ZM94.8023 4.40909V17.5H92.0345V7.03622H91.9578L88.96 8.91548V6.46094L92.2007 4.40909H94.8023Z" fill="white"/>
<path d="M54.6694 37.6591C53.98 37.6591 53.3751 37.495 52.8547 37.1669C52.3377 36.8388 51.9333 36.3797 51.6417 35.7898C51.3533 35.1998 51.2092 34.5104 51.2092 33.7216C51.2092 32.9261 51.3533 32.2318 51.6417 31.6385C51.9333 31.0452 52.3377 30.5845 52.8547 30.2564C53.3751 29.9283 53.98 29.7642 54.6694 29.7642C55.3588 29.7642 55.962 29.9283 56.479 30.2564C56.9994 30.5845 57.4038 31.0452 57.6921 31.6385C57.9838 32.2318 58.1296 32.9261 58.1296 33.7216C58.1296 34.5104 57.9838 35.1998 57.6921 35.7898C57.4038 36.3797 56.9994 36.8388 56.479 37.1669C55.962 37.495 55.3588 37.6591 54.6694 37.6591ZM54.6694 36.6051C55.1931 36.6051 55.6239 36.4709 55.962 36.2024C56.3001 35.9339 56.5503 35.581 56.7127 35.1435C56.8751 34.706 56.9563 34.232 56.9563 33.7216C56.9563 33.2112 56.8751 32.7356 56.7127 32.2947C56.5503 31.8539 56.3001 31.4976 55.962 31.2259C55.6239 30.9541 55.1931 30.8182 54.6694 30.8182C54.1457 30.8182 53.7148 30.9541 53.3768 31.2259C53.0387 31.4976 52.7885 31.8539 52.6261 32.2947C52.4636 32.7356 52.3824 33.2112 52.3824 33.7216C52.3824 34.232 52.4636 34.706 52.6261 35.1435C52.7885 35.581 53.0387 35.9339 53.3768 36.2024C53.7148 36.4709 54.1457 36.6051 54.6694 36.6051ZM63.0412 29.8636V30.858H58.9247V29.8636H63.0412ZM60.1577 37.5V28.8097C60.1577 28.3722 60.2604 28.0076 60.4659 27.7159C60.6714 27.4242 60.9382 27.2055 61.2663 27.0597C61.5945 26.9138 61.9408 26.8409 62.3054 26.8409C62.5937 26.8409 62.8291 26.8641 63.0114 26.9105C63.1937 26.9569 63.3295 27 63.419 27.0398L63.081 28.054C63.0213 28.0341 62.9384 28.0092 62.8324 27.9794C62.7296 27.9496 62.5937 27.9347 62.4247 27.9347C62.0369 27.9347 61.7569 28.0324 61.5845 28.228C61.4155 28.4235 61.331 28.7102 61.331 29.0881V37.5H60.1577ZM71.225 37.6392C70.6416 37.6392 70.1163 37.5232 69.649 37.2912C69.1817 37.0592 68.8071 36.741 68.5254 36.3366C68.2437 35.9323 68.0896 35.4716 68.063 34.9545H69.2562C69.3026 35.4152 69.5114 35.7964 69.8826 36.098C70.2572 36.3963 70.7046 36.5455 71.225 36.5455C71.6426 36.5455 72.0138 36.4477 72.3386 36.2521C72.6667 36.0566 72.9236 35.7881 73.1092 35.4467C73.2981 35.102 73.3926 34.7126 73.3926 34.2784C73.3926 33.8343 73.2948 33.4382 73.0993 33.0902C72.907 32.7389 72.6419 32.4621 72.3038 32.2599C71.9657 32.0578 71.5796 31.955 71.1454 31.9517C70.8339 31.9484 70.514 31.9964 70.1859 32.0959C69.8578 32.192 69.5877 32.3163 69.3755 32.4688L68.2221 32.3295L68.8386 27.3182H74.1284V28.4119H69.8727L69.5147 31.4148H69.5744C69.7832 31.2491 70.0451 31.1115 70.3599 31.0021C70.6748 30.8928 71.0029 30.8381 71.3443 30.8381C71.9674 30.8381 72.5226 30.9872 73.0098 31.2855C73.5003 31.5805 73.8848 31.9848 74.1632 32.4986C74.4449 33.0123 74.5858 33.599 74.5858 34.2585C74.5858 34.9081 74.4399 35.4882 74.1483 35.9986C73.8599 36.5057 73.4622 36.9067 72.9551 37.2017C72.448 37.4934 71.8713 37.6392 71.225 37.6392Z" fill="white" fill-opacity="0.6"/>
</svg>
