<svg width="58" height="41" viewBox="0 0 58 41" fill="none" xmlns="http://www.w3.org/2000/svg">
<path fill-rule="evenodd" clip-rule="evenodd" d="M29.2013 7.52675C29.281 7.23891 29.6865 7.23163 29.7765 7.51642L32.5213 16.2043C32.5512 16.299 32.6261 16.3728 32.7213 16.4013L40.5611 18.7497C40.8406 18.8334 40.8481 19.2265 40.572 19.3209L32.181 22.1891C32.0872 22.2211 32.0153 22.2974 31.9889 22.3929L29.7416 30.5097C29.6619 30.7976 29.2564 30.8048 29.1664 30.52L26.4215 21.8322C26.3916 21.7374 26.3167 21.6637 26.2216 21.6351L18.3818 19.2868C18.1023 19.203 18.0947 18.8099 18.3709 18.7155L26.7619 15.8474C26.8556 15.8153 26.9275 15.7391 26.9539 15.6436L29.2013 7.52675Z" fill="#F49B0B"/>
</svg>
